HIERARCHY
ROOT mixamorig:Hips
{
	OFFSET 0.000000 201.639420 0.000000
	CHANNELS 6 Xposition Yposition Zposition Xrotation Yrotation Zrotation
	JOINT mixamorig:Spine
	{
		OFFSET 0.006200 19.524994 -2.481800
		CHANNELS 3 Xrotation Yrotation Zrotation
		JOINT mixamorig:Spine1
		{
			OFFSET -0.000900 22.835007 -2.825400
			CHANNELS 3 Xrotation Yrotation Zrotation
			JOINT mixamorig:Spine2
			{
				OFFSET -0.020600 26.552490 -3.193300
				CHANNELS 3 Xrotation Yrotation Zrotation
				JOINT mixamorig:Neck
				{
					OFFSET -0.060000 30.701813 1.352200
					CHANNELS 3 Xrotation Yrotation Zrotation
					JOINT mixamorig:Head
					{
						OFFSET -0.087200 22.547607 3.670900
						CHANNELS 3 Xrotation Yrotation Zrotation
						JOINT mixamorig:HeadTop_End
						{
							OFFSET -0.830600 40.355194 7.893500
							CHANNELS 3 Xrotation Yrotation Zrotation
							End Site
							{
								OFFSET 0.000000 30.592346 0.000000
							}
						}
						JOINT mixamorig:RightEye
						{
							OFFSET -6.302100 18.118591 16.197100
							CHANNELS 3 Xrotation Yrotation Zrotation
							End Site
							{
								OFFSET 0.000000 30.592346 0.000000
							}
						}
						JOINT mixamorig:LeftEye
						{
							OFFSET 6.741500 18.382690 16.401899
							CHANNELS 3 Xrotation Yrotation Zrotation
							End Site
							{
								OFFSET 0.000000 30.592346 0.000000
							}
						}
					}
				}
				JOINT mixamorig:LeftShoulder
				{
					OFFSET 11.924900 18.230499 1.425400
					CHANNELS 3 Xrotation Yrotation Zrotation
					JOINT mixamorig:LeftArm
					{
						OFFSET 25.435989 -0.697632 -5.229300
						CHANNELS 3 Xrotation Yrotation Zrotation
						JOINT mixamorig:LeftForeArm
						{
							OFFSET 54.684776 0.000000 0.000000
							CHANNELS 3 Xrotation Yrotation Zrotation
							JOINT mixamorig:LeftHand
							{
								OFFSET 55.098175 0.000000 0.000000
								CHANNELS 3 Xrotation Yrotation Zrotation
								JOINT mixamorig:LeftHandMiddle1
								{
									OFFSET 23.369751 0.000000 0.000000
									CHANNELS 3 Xrotation Yrotation Zrotation
									JOINT mixamorig:LeftHandMiddle2
									{
										OFFSET 6.378677 0.000000 0.000000
										CHANNELS 3 Xrotation Yrotation Zrotation
										JOINT mixamorig:LeftHandMiddle3
										{
											OFFSET 6.148331 0.000000 0.000000
											CHANNELS 3 Xrotation Yrotation Zrotation
											JOINT mixamorig:LeftHandMiddle4
											{
												OFFSET 6.582504 0.000000 0.000000
												CHANNELS 3 Xrotation Yrotation Zrotation
												End Site
												{
													OFFSET -1.168900 6.395691 1.028606
												}
											}
										}
									}
								}
								JOINT mixamorig:LeftHandThumb1
								{
									OFFSET 7.235672 -3.848206 5.434273
									CHANNELS 3 Xrotation Yrotation Zrotation
									JOINT mixamorig:LeftHandThumb2
									{
										OFFSET 6.568451 -3.792297 3.792300
										CHANNELS 3 Xrotation Yrotation Zrotation
										JOINT mixamorig:LeftHandThumb3
										{
											OFFSET 6.063080 -3.500519 3.500518
											CHANNELS 3 Xrotation Yrotation Zrotation
											JOINT mixamorig:LeftHandThumb4
											{
												OFFSET 4.793182 -2.767334 2.767349
												CHANNELS 3 Xrotation Yrotation Zrotation
												End Site
												{
													OFFSET 0.101639 6.054260 1.275483
												}
											}
										}
									}
								}
								JOINT mixamorig:LeftHandIndex1
								{
									OFFSET 23.101074 -0.309540 4.992809
									CHANNELS 3 Xrotation Yrotation Zrotation
									JOINT mixamorig:LeftHandIndex2
									{
										OFFSET 6.226883 0.000000 0.000000
										CHANNELS 3 Xrotation Yrotation Zrotation
										JOINT mixamorig:LeftHandIndex3
										{
											OFFSET 6.094330 0.000000 0.000000
											CHANNELS 3 Xrotation Yrotation Zrotation
											JOINT mixamorig:LeftHandIndex4
											{
												OFFSET 5.482605 0.000000 0.000000
												CHANNELS 3 Xrotation Yrotation Zrotation
												End Site
												{
													OFFSET -1.427902 5.233032 0.797164
												}
											}
										}
									}
								}
								JOINT mixamorig:LeftHandRing1
								{
									OFFSET 22.299240 0.021149 -3.964172
									CHANNELS 3 Xrotation Yrotation Zrotation
									JOINT mixamorig:LeftHandRing2
									{
										OFFSET 6.321869 0.000000 0.000000
										CHANNELS 3 Xrotation Yrotation Zrotation
										JOINT mixamorig:LeftHandRing3
										{
											OFFSET 5.899796 0.000000 0.000000
											CHANNELS 3 Xrotation Yrotation Zrotation
											JOINT mixamorig:LeftHandRing4
											{
												OFFSET 6.517899 0.000000 0.000000
												CHANNELS 3 Xrotation Yrotation Zrotation
												End Site
												{
													OFFSET -1.637299 6.232208 0.980890
												}
											}
										}
									}
								}
								JOINT mixamorig:LeftHandPinky1
								{
									OFFSET 20.463791 -0.302338 -8.562233
									CHANNELS 3 Xrotation Yrotation Zrotation
									JOINT mixamorig:LeftHandPinky2
									{
										OFFSET 6.908646 0.000000 0.000000
										CHANNELS 3 Xrotation Yrotation Zrotation
										JOINT mixamorig:LeftHandPinky3
										{
											OFFSET 4.622849 0.000000 0.000000
											CHANNELS 3 Xrotation Yrotation Zrotation
											JOINT mixamorig:LeftHandPinky4
											{
												OFFSET 5.216080 0.000000 0.000000
												CHANNELS 3 Xrotation Yrotation Zrotation
												End Site
												{
													OFFSET -0.606308 5.116241 0.814926
												}
											}
										}
									}
								}
							}
						}
					}
				}
				JOINT mixamorig:RightShoulder
				{
					OFFSET -12.001300 18.284088 1.348900
					CHANNELS 3 Xrotation Yrotation Zrotation
					JOINT mixamorig:RightArm
					{
						OFFSET -25.308500 -0.751312 -5.164599
						CHANNELS 3 Xrotation Yrotation Zrotation
						JOINT mixamorig:RightForeArm
						{
							OFFSET -54.684429 0.000000 0.000000
							CHANNELS 3 Xrotation Yrotation Zrotation
							JOINT mixamorig:RightHand
							{
								OFFSET -55.150291 0.000000 0.000000
								CHANNELS 3 Xrotation Yrotation Zrotation
								JOINT mixamorig:RightHandMiddle1
								{
									OFFSET -23.317566 0.000000 0.000000
									CHANNELS 3 Xrotation Yrotation Zrotation
									JOINT mixamorig:RightHandMiddle2
									{
										OFFSET -6.378403 0.000000 0.000000
										CHANNELS 3 Xrotation Yrotation Zrotation
										JOINT mixamorig:RightHandMiddle3
										{
											OFFSET -6.148193 0.000000 0.000000
											CHANNELS 3 Xrotation Yrotation Zrotation
											JOINT mixamorig:RightHandMiddle4
											{
												OFFSET -6.583389 0.000000 0.000000
												CHANNELS 3 Xrotation Yrotation Zrotation
												End Site
												{
													OFFSET 1.171692 6.395905 1.029786
												}
											}
										}
									}
								}
								JOINT mixamorig:RightHandThumb1
								{
									OFFSET -7.190521 -3.860474 5.435846
									CHANNELS 3 Xrotation Yrotation Zrotation
									JOINT mixamorig:RightHandThumb2
									{
										OFFSET -6.567429 -3.791718 3.791708
										CHANNELS 3 Xrotation Yrotation Zrotation
										JOINT mixamorig:RightHandThumb3
										{
											OFFSET -6.062469 -3.500153 3.500166
											CHANNELS 3 Xrotation Yrotation Zrotation
											JOINT mixamorig:RightHandThumb4
											{
												OFFSET -4.792618 -2.767029 2.767022
												CHANNELS 3 Xrotation Yrotation Zrotation
												End Site
												{
													OFFSET -0.100327 6.053253 1.276754
												}
											}
										}
									}
								}
								JOINT mixamorig:RightHandIndex1
								{
									OFFSET -23.048981 -0.310791 4.992554
									CHANNELS 3 Xrotation Yrotation Zrotation
									JOINT mixamorig:RightHandIndex2
									{
										OFFSET -6.227539 0.000000 0.000000
										CHANNELS 3 Xrotation Yrotation Zrotation
										JOINT mixamorig:RightHandIndex3
										{
											OFFSET -6.095047 0.000000 0.000000
											CHANNELS 3 Xrotation Yrotation Zrotation
											JOINT mixamorig:RightHandIndex4
											{
												OFFSET -5.484772 0.000000 0.000000
												CHANNELS 3 Xrotation Yrotation Zrotation
												End Site
												{
													OFFSET 1.420593 5.237305 0.797056
												}
											}
										}
									}
								}
								JOINT mixamorig:RightHandRing1
								{
									OFFSET -22.246323 0.020569 -3.963762
									CHANNELS 3 Xrotation Yrotation Zrotation
									JOINT mixamorig:RightHandRing2
									{
										OFFSET -6.322128 0.000000 0.000000
										CHANNELS 3 Xrotation Yrotation Zrotation
										JOINT mixamorig:RightHandRing3
										{
											OFFSET -5.900024 0.000000 0.000000
											CHANNELS 3 Xrotation Yrotation Zrotation
											JOINT mixamorig:RightHandRing4
											{
												OFFSET -6.518356 0.000000 0.000000
												CHANNELS 3 Xrotation Yrotation Zrotation
												End Site
												{
													OFFSET 1.636398 6.232697 0.982186
												}
											}
										}
									}
								}
								JOINT mixamorig:RightHandPinky1
								{
									OFFSET -20.411011 -0.303314 -8.561701
									CHANNELS 3 Xrotation Yrotation Zrotation
									JOINT mixamorig:RightHandPinky2
									{
										OFFSET -6.907349 0.000000 0.000000
										CHANNELS 3 Xrotation Yrotation Zrotation
										JOINT mixamorig:RightHandPinky3
										{
											OFFSET -4.623840 0.000000 0.000000
											CHANNELS 3 Xrotation Yrotation Zrotation
											JOINT mixamorig:RightHandPinky4
											{
												OFFSET -5.218353 0.000000 0.000000
												CHANNELS 3 Xrotation Yrotation Zrotation
												End Site
												{
													OFFSET 0.602097 5.118835 0.816273
												}
											}
										}
									}
								}
							}
						}
					}
				}
			}
		}
	}
	JOINT mixamorig:LeftUpLeg
	{
		OFFSET 18.168400 -13.561905 -0.039000
		CHANNELS 3 Xrotation Yrotation Zrotation
		JOINT mixamorig:LeftLeg
		{
			OFFSET 0.577358 -80.825211 -3.695000
			CHANNELS 3 Xrotation Yrotation Zrotation
			JOINT mixamorig:LeftFoot
			{
				OFFSET -0.577356 -83.370262 -6.520700
				CHANNELS 3 Xrotation Yrotation Zrotation
				JOINT mixamorig:LeftToeBase
				{
					OFFSET 0.750401 -20.798306 25.135401
					CHANNELS 3 Xrotation Yrotation Zrotation
					JOINT mixamorig:LeftToe_End
					{
						OFFSET -0.000500 0.001200 19.917799
						CHANNELS 3 Xrotation Yrotation Zrotation
						End Site
						{
							OFFSET 0.000000 19.917805 0.000000
						}
					}
				}
			}
		}
	}
	JOINT mixamorig:RightUpLeg
	{
		OFFSET -18.162500 -13.585098 -0.041000
		CHANNELS 3 Xrotation Yrotation Zrotation
		JOINT mixamorig:RightLeg
		{
			OFFSET -0.595024 -80.945297 -3.631900
			CHANNELS 3 Xrotation Yrotation Zrotation
			JOINT mixamorig:RightFoot
			{
				OFFSET 0.595024 -83.218193 -6.561200
				CHANNELS 3 Xrotation Yrotation Zrotation
				JOINT mixamorig:RightToeBase
				{
					OFFSET -0.753601 -20.807106 25.115000
					CHANNELS 3 Xrotation Yrotation Zrotation
					JOINT mixamorig:RightToe_End
					{
						OFFSET 0.000299 0.001700 19.918200
						CHANNELS 3 Xrotation Yrotation Zrotation
						End Site
						{
							OFFSET 0.000000 19.918203 0.000000
						}
					}
				}
			}
		}
	}
}
MOTION
Frames: 4
Frame Time: 0.033333
-8.731309 251.692490 -3.014963 -2.670283 -27.076188 6.593466 7.836156 -0.902138 -1.589082 15.678254 -1.794793 -1.831607 15.678243 -1.794793 -1.831606 -3.060047 5.322068 -4.906186 12.851556 13.557090 -0.401417 -0.000002 -0.000001 0.000001 -0.000002 -0.000001 0.000001 -0.000002 -0.000001 0.000001 -3.668003 -1.774231 -3.609115 -33.009666 -18.488070 14.001877 7.658022 -26.423241 -7.746166 3.368638 -6.902859 29.264311 1.432544 4.944012 -6.460669 -0.199856 -0.787570 -14.407623 -0.000002 -0.000005 -0.000006 -0.000003 -0.000000 -0.000003 3.931244 -3.811969 -7.255260 -0.331899 0.039536 0.785319 0.000007 0.000003 0.000012 0.000000 0.000000 0.000000 -1.151053 -10.829996 -3.470921 0.039691 0.802207 -16.419343 -0.000001 0.000001 0.000001 -0.000001 0.000000 0.000001 2.538528 14.433916 -19.082200 -0.254578 -2.043987 -19.832320 -0.000000 0.000003 0.000006 0.000000 -0.000001 -0.000002 4.516305 19.103556 -21.917843 -0.553798 -5.548631 -26.164433 -0.000004 0.000004 -0.000003 0.000000 0.000000 0.000001 -3.736643 -9.042786 3.791434 -13.799993 -8.776039 -5.510922 25.496295 32.324939 -1.136598 14.930104 0.301748 -47.333969 -0.586852 -3.332054 7.136650 -0.427797 1.370814 24.969271 0.000008 0.000000 -0.000006 0.000001 0.000000 -0.000002 -12.922142 3.648417 1.248704 4.042372 -10.459563 -2.461410 0.000013 0.000000 0.000023 -0.000001 -0.000002 0.000003 -1.492580 4.105504 4.127073 0.148835 -1.113499 16.942723 -0.000001 -0.000001 -0.000004 0.000001 0.000000 -0.000000 2.674698 -8.198821 13.040981 -0.579202 3.131724 28.640315 -0.000002 -0.000001 0.000002 0.000001 -0.000000 0.000000 6.142324 -14.432518 16.069664 -0.779402 6.825767 24.720314 -0.000003 -0.000000 0.000006 -0.000003 0.000000 -0.000003 -53.181530 6.088508 10.313369 67.462134 -12.352558 -3.721850 10.862882 -1.346164 -11.161329 -0.500177 0.089759 -1.441084 -0.000001 -0.000000 -0.000000 -45.559421 -9.868655 -38.347305 87.244472 8.086757 14.010795 17.471404 -0.688901 27.947483 5.286051 0.182251 -0.307792 -0.000002 -0.000001 -0.000000 
-9.228668 233.305344 3.515301 -1.296634 -22.784553 5.373154 6.445372 -0.592257 -1.030050 12.890102 -1.184057 -1.397271 12.890105 -1.184068 -1.397271 -3.867673 4.484503 -3.496798 18.113771 13.672009 0.197335 -0.000001 0.000000 -0.000000 -0.000001 0.000000 -0.000000 -0.000001 0.000000 -0.000000 -3.651071 -2.181066 -6.134262 -35.623719 -28.367254 9.922141 13.270832 -25.978720 -6.203365 5.718455 -5.233174 29.167927 1.518001 3.772052 -4.522666 -0.152690 -0.593280 -12.585901 -0.000001 -0.000005 -0.000005 -0.000001 0.000001 -0.000000 2.610896 -5.886435 -7.807345 -0.332328 0.038711 0.785249 0.000008 0.000003 0.000012 0.000004 0.000001 0.000002 -1.208618 -11.773072 -3.387724 0.039874 0.802151 -16.419353 0.000000 0.000001 0.000005 -0.000000 -0.000000 0.000000 2.579192 14.310553 -16.106303 -0.197913 -1.871948 -16.863734 0.000002 0.000001 0.000003 0.000002 -0.000000 0.000001 4.580120 19.265636 -18.725092 -0.522768 -5.486480 -22.943700 -0.000002 0.000003 -0.000005 -0.000001 0.000001 -0.000000 -3.096189 -8.122099 6.584574 -8.950274 -11.554249 0.209223 25.272070 35.792008 0.497102 10.522626 -0.239358 -53.264049 -0.572748 -3.438290 5.771031 -0.377677 1.259782 23.603464 0.000003 0.000002 -0.000007 0.000002 -0.000001 -0.000000 -13.948646 5.712116 1.745951 3.107761 -8.335302 -2.276521 0.000009 0.000001 0.000025 -0.000003 0.000001 -0.000000 -1.584725 5.403819 4.032809 0.147915 -1.113794 16.942703 0.000001 0.000001 -0.000009 0.000006 0.000000 -0.000001 2.715146 -8.398728 10.912568 -0.494245 2.968709 26.499800 -0.000006 0.000001 0.000001 0.000002 0.000001 0.000002 6.611630 -15.607232 14.064955 -0.661502 6.544846 20.734984 -0.000006 -0.000002 0.000005 0.000001 0.000000 0.000001 -41.159632 3.013836 5.153370 44.292694 -18.321766 -1.027080 15.407069 -2.261121 -16.153264 -0.384635 0.029211 -1.575031 0.000002 -0.000001 0.000000 -31.084362 -19.063746 -39.644604 68.961189 -3.251188 15.739428 13.575774 -0.755999 28.805206 5.160104 -0.784772 0.120732 -0.000003 0.000000 0.000000 
-9.325683 210.591751 8.755222 -1.788397 -18.585790 3.099393 5.468609 -0.395364 -0.560174 10.935008 -0.622031 -1.007350 10.935004 -0.622031 -1.007352 -4.923626 3.108799 -1.914231 21.874712 12.664749 1.680920 -0.000000 -0.000001 -0.000000 -0.000000 -0.000001 -0.000000 -0.000000 -0.000001 -0.000000 -3.608477 -3.226287 -8.192181 -40.687888 -36.278645 2.131602 17.994929 -24.647774 -4.263813 10.628233 -4.775377 29.266589 1.648270 2.816092 -2.947675 -0.117602 -0.433997 -11.100009 -0.000004 -0.000006 -0.000008 -0.000003 0.000000 -0.000001 1.514793 -7.568849 -8.295017 -0.332323 0.038704 0.785253 0.000007 0.000000 0.000012 0.000001 0.000000 0.000002 -1.254694 -12.542445 -3.320356 0.039956 0.802132 -16.419343 0.000002 0.000001 0.000004 0.000000 0.000000 0.000001 2.629100 14.208415 -13.683135 -0.159004 -1.729486 -14.442495 0.000000 0.000001 0.000004 0.000001 0.000002 0.000001 4.625244 19.400061 -16.118429 -0.502453 -5.433698 -20.316918 -0.000002 0.000003 -0.000006 -0.000002 -0.000002 0.000001 -2.531173 -7.049181 9.087701 -4.432476 -15.485384 10.424803 21.879386 39.806503 1.231316 8.348201 0.243158 -56.458709 -0.562842 -3.525066 4.656955 -0.339239 1.168254 22.489439 0.000002 0.000002 -0.000005 0.000001 -0.000000 -0.000001 -14.802442 7.388710 2.180613 2.343636 -6.604874 -2.100540 0.000011 0.000002 0.000020 -0.000001 0.000000 0.000000 -1.658427 6.463011 3.957273 0.146722 -1.114165 16.942674 -0.000001 -0.000001 -0.000006 0.000002 0.000002 -0.000001 2.741639 -8.563201 9.175532 -0.429514 2.833483 24.754127 -0.000000 0.000000 0.000000 -0.000001 -0.000001 -0.000001 6.938296 -16.591069 12.428357 -0.580099 6.310155 17.486126 0.000002 -0.000001 0.000006 0.000005 -0.000000 0.000000 -30.303770 -0.499788 2.056722 27.665953 -25.288813 2.587309 16.036840 -3.257033 -21.426961 0.064051 0.534284 -0.719612 0.000000 -0.000002 0.000001 -17.528381 -26.457812 -34.724091 52.224217 -11.747481 12.077935 9.882679 0.403164 25.017965 4.734753 -0.948504 0.255085 0.000001 0.000000 0.000000 
-9.796007 186.141632 10.700660 -0.503068 -14.404973 1.926059 5.268442 -0.305507 -0.304519 10.534733 -0.343296 -0.793267 10.534744 -0.343304 -0.793264 -6.936160 1.676369 -1.492229 21.524723 9.849659 3.680943 -0.000002 0.000000 -0.000000 -0.000002 0.000000 -0.000000 -0.000002 0.000000 -0.000000 -3.516895 -4.997529 -9.256158 -47.624197 -41.620721 -8.990676 20.142423 -20.848432 -2.677291 15.518622 -6.071544 29.655110 1.760959 2.201139 -1.934708 -0.096240 -0.331059 -10.142309 0.000002 -0.000004 -0.000006 -0.000001 0.000000 -0.000000 0.798232 -8.648164 -8.627633 -0.332333 0.038712 0.785241 0.000008 0.000000 0.000011 0.000000 0.000000 0.000003 -1.283972 -13.038354 -3.277174 0.039930 0.802140 -16.419363 0.000000 0.000002 0.000004 0.000001 0.000001 -0.000002 2.669316 14.142386 -12.123387 -0.138862 -1.636368 -12.882069 0.000002 0.000000 0.000006 0.000001 -0.000001 0.000001 4.649597 19.487986 -14.436928 -0.492688 -5.398338 -18.624133 -0.000002 0.000002 -0.000004 -0.000001 0.000001 0.000000 -2.160816 -5.539172 10.730033 -2.088559 -16.885995 23.167833 16.792775 40.071689 1.254982 9.292482 2.317795 -54.495238 -0.557332 -3.581106 3.938727 -0.315912 1.108736 21.771264 0.000009 0.000001 -0.000007 0.000002 0.000001 -0.000000 -15.361432 8.465872 2.475154 1.849612 -5.490774 -1.975139 0.000011 0.000002 0.000023 0.000001 -0.000001 0.000000 -1.705285 7.145744 3.909197 0.145312 -1.114626 16.942658 -0.000001 -0.000001 -0.000007 0.000001 -0.000001 -0.000003 2.755804 -8.669757 8.055428 -0.389920 2.745256 23.628952 -0.000002 0.000000 -0.000002 -0.000000 0.000000 0.000004 7.121342 -17.236295 11.372011 -0.534737 6.156552 15.392798 -0.000010 0.000001 0.000009 -0.000001 0.000000 0.000000 -36.701164 -4.131593 -0.059530 42.832803 -24.869842 3.750027 -5.907558 -1.982716 -8.179108 -3.649390 -0.573302 1.883160 -0.000000 0.000000 0.000000 -13.295703 -32.079223 -31.577699 48.922200 -14.960455 8.182307 -6.346343 4.448205 22.921461 -16.754835 -4.925835 1.155662 0.000001 -0.000001 0.000000 
